<svg width="339" height="256" fill="none" xmlns="http://www.w3.org/2000/svg"><g clip-path="url(#a)"><path fill="#fff" d="M0 0h339v256H0z"/><g filter="url(#b)"><path d="m121.722 30.11 214.661 33.541-25.757 161.697-214.661-33.541L121.722 30.11Z" fill="#E6E5FF" stroke="#4B4E53"/><mask id="c" fill="#fff"><path fill-rule="evenodd" clip-rule="evenodd" d="M335.819 64.054 122.134 30.665l-25.605 160.74 213.685 33.388 25.605-160.74ZM121.307 29.539 95.392 192.224l215.649 33.695 25.915-162.684-215.649-33.696Z"/></mask><path fill-rule="evenodd" clip-rule="evenodd" d="M335.819 64.054 122.134 30.665l-25.605 160.74 213.685 33.388 25.605-160.74ZM121.307 29.539 95.392 192.224l215.649 33.695 25.915-162.684-215.649-33.696Z" fill="#E6E5FF"/><path d="m122.134 30.665.157-.988-.988-.154-.157.988.988.154Zm213.685 33.389.988.154.157-.987-.988-.155-.157.988ZM96.529 191.405l-.988-.155-.157.988.988.154.157-.987Zm213.685 33.388-.157.988.988.154.157-.987-.988-.155ZM121.307 29.539l.157-.988-.988-.154-.157.988.988.154ZM95.392 192.224l-.988-.155-.157.988.988.154.157-.987Zm215.649 33.695-.157.988.988.154.157-.987-.988-.155Zm25.915-162.684.988.154.157-.987-.988-.155-.157.988Zm-214.98-31.582 213.685 33.389.315-1.976-213.685-33.389-.315 1.976Zm-24.46 159.906 25.606-160.74-1.976-.308L95.541 191.25l1.976.309Zm212.855 32.247L96.686 190.417l-.314 1.975 213.685 33.389.314-1.975ZM334.831 63.9l-25.605 160.739 1.976.309 25.605-160.74-1.976-.308ZM121.149 30.527l215.649 33.695.315-1.975-215.649-33.696-.315 1.976Zm-24.77 161.851 25.916-162.685-1.976-.308-25.915 162.684 1.976.309Zm214.819 32.554L95.549 191.236l-.314 1.975 215.649 33.696.314-1.975Zm24.77-161.852-25.915 162.685 1.976.309 25.915-162.685-1.976-.309Z" fill="#4B4E53" mask="url(#c)"/><path d="m133.361 46.957 187.446 29.289-21.245 133.371-187.447-29.289 21.246-133.371Z" fill="#fff" stroke="#4B4E53"/><mask id="d" fill="#fff"><path fill-rule="evenodd" clip-rule="evenodd" d="M320.243 76.648 133.772 47.512 112.68 179.925l186.47 29.137 21.093-132.414ZM132.945 46.386l-21.402 134.358 188.434 29.444L321.38 75.829 132.945 46.386Z"/></mask><path fill-rule="evenodd" clip-rule="evenodd" d="M320.243 76.648 133.772 47.512 112.68 179.925l186.47 29.137 21.093-132.414ZM132.945 46.386l-21.402 134.358 188.434 29.444L321.38 75.829 132.945 46.386Z" fill="#fff"/><path d="m133.772 47.512.158-.988-.988-.154-.158.987.988.155Zm186.471 29.136.988.155.157-.988-.988-.154-.157.987ZM112.68 179.925l-.988-.154-.158.987.988.155.158-.988Zm186.47 29.137-.157.987.988.155.157-.988-.988-.154ZM132.945 46.386l.158-.988-.988-.154-.158.987.988.155Zm-21.402 134.358-.988-.154-.158.988.988.154.158-.988Zm188.434 29.444-.157.987.988.155.157-.988-.988-.154ZM321.38 75.829l.988.155.157-.988-.988-.154-.157.987ZM133.615 48.5l186.47 29.137.315-1.975-186.47-29.137-.315 1.975ZM113.668 180.08 134.76 47.666l-1.976-.309-21.092 132.414 1.976.309Zm185.639 27.994-186.47-29.136-.315 1.975 186.471 29.136.314-1.975Zm19.948-131.58-21.093 132.413 1.976.309 21.093-132.413-1.976-.31Zm-186.467-29.12 188.434 29.443.315-1.975-188.434-29.444-.315 1.975Zm-20.257 133.525L133.933 46.54l-1.976-.309-21.402 134.359 1.976.309ZM300.134 209.2 111.7 179.757l-.315 1.975 188.435 29.443.314-1.975Zm20.258-133.525-21.403 134.358 1.976.309 21.403-134.358-1.976-.31Z" fill="#4B4E53" mask="url(#d)"/><path fill-rule="evenodd" clip-rule="evenodd" d="m302.667 191.513-187.706-29.86.158-.972 187.706 29.86-.158.972Z" fill="#4B4E53"/><path fill-rule="evenodd" clip-rule="evenodd" d="m186.526 130.782-.362-2.347c-.011-.049-.248 1.198-.427 2.318l-2.988 18.758c-.363 2.278-2.336 3.907-4.589 3.929L174 179.551l-3.867-.604 4.149-26.048-5.415-.846-4.149 26.048-3.868-.605 4.15-26.047c-2.564-.4-4.314-2.783-3.909-5.322l3.166-19.878.307-1.923c-.005-.121-1.061 1.681-1.061 1.681a15.985 15.985 0 0 0-1.55 4.755l-2.182 13.698c-.311 1.365-1.09 1.95-2.337 1.755-1.248-.194-1.758-.981-1.531-2.359l2.195-13.781c.665-4.173 3.286-8.524 7.862-13.053a1.846 1.846 0 0 1 1.871-.439c.112.002.226.011.34.029l5.844.913.309-1.936c.236-1.48 1.639-2.492 3.134-2.258 1.495.234 2.516 1.624 2.28 3.104l-.308 1.936 5.758.9c.055.008.109.019.162.031a1.832 1.832 0 0 1 1.489.982c2.946 5.705 4.086 10.643 3.422 14.816l-2.195 13.781c-.213 1.381-.943 1.974-2.19 1.779-1.247-.195-1.807-.989-1.678-2.383l2.182-13.698c.201-1.259.249-2.525.146-3.797Z" fill="#fff"/><path fill-rule="evenodd" clip-rule="evenodd" d="m186.164 128.435.362 2.347a15.874 15.874 0 0 1-.146 3.797l-2.182 13.698c-.129 1.394.431 2.188 1.678 2.383 1.247.195 1.977-.398 2.19-1.779l2.195-13.781c.664-4.173-.476-9.111-3.422-14.816a1.832 1.832 0 0 0-1.489-.982 2.107 2.107 0 0 0-.162-.031l-5.758-.9.308-1.936c.236-1.48-.785-2.87-2.28-3.104-1.495-.234-2.898.778-3.134 2.258l-.309 1.936-5.844-.913a2.464 2.464 0 0 0-.34-.029 1.846 1.846 0 0 0-1.871.439c-4.576 4.529-7.197 8.88-7.862 13.053l-2.195 13.781c-.227 1.378.283 2.165 1.531 2.359 1.247.195 2.026-.39 2.337-1.755l2.182-13.698c.263-1.654.78-3.239 1.55-4.755 0 0 1.056-1.802 1.061-1.681l-.307 1.923-3.166 19.878c-.405 2.539 1.345 4.922 3.909 5.322l-4.15 26.047 3.868.605 4.149-26.048 5.415.846-4.149 26.048 3.867.604 4.16-26.111c2.253-.022 4.226-1.651 4.589-3.929l2.988-18.758c.179-1.12.416-2.367.427-2.318Zm-12.815 50.229-2.321-.362 4.149-26.048-6.961-1.088-4.149 26.048-2.321-.363 4.149-26.047-.773-.121c-2.136-.334-3.595-2.319-3.258-4.435l4.058-25.473-1.984 2.954c-1.447 2.155-2.368 4.461-2.759 6.912l-2.182 13.698c-.214.933-.621 1.239-1.441 1.11-.799-.124-1.04-.497-.88-1.468l2.196-13.785c.635-3.99 3.173-8.203 7.712-12.69a1.052 1.052 0 0 1 1.001-.186l.115.037.121.002c.076.001.152.007.228.019l6.618 1.034.43-2.702a1.956 1.956 0 0 1 2.239-1.613 1.943 1.943 0 0 1 1.629 2.218l-.43 2.701 6.531 1.021c.037.006.073.013.109.021l.114.017c.328.025.626.199.853.562 2.876 5.571 3.981 10.352 3.345 14.342l-2.195 13.781c-.15.978-.496 1.258-1.294 1.134-.821-.129-1.113-.543-1.02-1.547l.003-.023c1.082-6.777 1.083-6.785 2.172-13.625.347-2.178.26-4.375-.26-6.587l-.911-3.871-4.006 25.15c-.299 1.877-1.927 3.255-3.824 3.274l-.663.006-4.14 25.993Z" fill="#4B4E53"/><path fill-rule="evenodd" clip-rule="evenodd" d="M177.515 115.342c9.152 1.43 17.748-4.791 19.198-13.894 1.45-9.103-4.794-17.642-13.947-19.072-9.153-1.43-17.748 4.79-19.198 13.893-1.45 9.103 4.794 17.642 13.947 19.073Z" fill="#fff"/><path fill-rule="evenodd" clip-rule="evenodd" d="M162.815 96.151c-1.516 9.517 5.012 18.444 14.58 19.94 9.569 1.495 18.555-5.008 20.071-14.525 1.516-9.517-5.012-18.445-14.581-19.94-9.568-1.495-18.554 5.008-20.07 14.525Zm33.898 5.297c-1.45 9.103-10.045 15.324-19.198 13.893-9.153-1.43-15.397-9.969-13.947-19.072 1.45-9.103 10.045-15.324 19.198-13.894 9.153 1.43 15.397 9.97 13.947 19.073Z" fill="#4B4E53"/><path fill-rule="evenodd" clip-rule="evenodd" d="M165.375 117.711a2.748 2.748 0 0 1 2.884-1.477l17.169 2.683a.673.673 0 0 1 .123.025 2.068 2.068 0 0 1 1.599.953c.297.403.475.806.551 1.233l2.963 7.019-4.201 1.695-5.406 33.932-22.583-3.529 5.392-33.851-.234.264-3.488-2.908 5.231-6.039Z" fill="#fff"/><path fill-rule="evenodd" clip-rule="evenodd" d="M168.259 116.234a2.748 2.748 0 0 0-2.884 1.477l-5.231 6.039 3.488 2.908.234-.264-5.392 33.851 22.583 3.529 5.406-33.932 4.201-1.695-2.963-7.019a2.91 2.91 0 0 0-.551-1.233 2.068 2.068 0 0 0-1.599-.953.673.673 0 0 0-.123-.025l-17.169-2.683Zm18.268 4.14c.228.305.358.605.434 1.012l2.676 6.338-2.78 1.121-.754-1.725-5.697 35.767-21.037-3.287 5.691-35.726-1.51 1.701-2.297-1.914 4.807-5.571a1.963 1.963 0 0 1 2.077-1.09l17.169 2.683c.044.007.087.015.13.024.462.038.831.254 1.091.667Z" fill="#4B4E53"/><path fill-rule="evenodd" clip-rule="evenodd" d="M167.532 117.968a2.996 2.996 0 0 1 1.961-.363l15.882 2.482c.3.047.583.137.844.262a1.928 1.928 0 0 1 1.494 1.157l3.089 7.317-3.501 1.412-.37-.847-5.548 34.829-21.811-3.407 5.542-34.789-.872.983-2.892-2.411 5.213-6.019a1.92 1.92 0 0 1 .969-.606Z" fill="#9FDAA9" style="mix-blend-mode:multiply"/><path d="m163.126 143.306-1.22 7.661.773.121 1.22-7.661-.773-.121ZM180.917 146.086l-1.22 7.661.773.121 1.221-7.661-.774-.121Z" fill="#4B4E53"/><path fill-rule="evenodd" clip-rule="evenodd" d="M173.618 79.775c-.842 5.29 2.804 10.253 8.144 11.088 5.34.834 10.352-2.777 11.194-8.066.843-5.289-2.803-10.253-8.143-11.087-5.34-.834-10.352 2.777-11.195 8.066Zm18.565 2.901c-.775 4.866-5.386 8.188-10.299 7.42-4.913-.767-8.267-5.334-7.492-10.2.775-4.865 5.386-8.188 10.299-7.42 4.912.768 8.267 5.335 7.492 10.2Z" fill="#4B4E53"/><path fill-rule="evenodd" clip-rule="evenodd" d="M167.495 86.352a17.699 17.699 0 0 1 15.429-5.123c9.612 1.502 16.175 10.437 14.659 19.957a17.87 17.87 0 0 1-.235 1.203l-.115.494-.451-.239c-2.686-1.541-4.442-2.366-6.578-3.018-.472-.144-.942-.315-1.438-.474a148.21 148.21 0 0 0-3.6-1.097c-.674-.197-3.005-.872-3.454-1.003-3.495-1.021-5.413-1.673-6.848-2.398-2.996-1.513-5.474-4.135-7.434-7.853l-.131-.248.196-.201Z" fill="#fff"/><path fill-rule="evenodd" clip-rule="evenodd" d="M182.924 81.23c-5.746-.898-11.167.804-15.303 5.414l-.196.202.13.247c1.96 3.719 4.312 6.048 7.308 7.561 1.436.725 3.354 1.377 6.849 2.398l1.261.366 2.193.637c1.381.405 2.515.75 3.6 1.097.213.069.421.139.626.209.273.092.542.183.812.265 2.135.652 3.892 1.477 6.577 3.018l.452.24.115-.495c.092-.397.17-.798.234-1.203 1.517-9.52-5.046-18.455-14.658-19.956Zm-.991 15.079c-3.447-1.008-5.337-1.65-6.714-2.346-2.775-1.401-4.97-3.529-6.837-6.98 3.76-4.11 9.024-5.83 14.42-4.987 9.185 1.435 15.456 9.973 14.007 19.069-.035.219-.074.437-.117.654-2.54-1.476-3.682-2.005-6.234-2.826-.228-.074-.457-.15-.69-.228a66.371 66.371 0 0 0-.761-.25 148.43 148.43 0 0 0-3.619-1.103c-.399-.117-1.373-.4-2.197-.638l-1.258-.365Z" fill="#4B4E53"/><path d="M196.982 102.77a.387.387 0 0 1-.09-.542.395.395 0 0 1 .547-.089c2.507 1.78 3.683 3.755 3.468 5.908-.215 2.162-1.373 3.491-3.415 3.905a.388.388 0 1 1-.157-.76c1.699-.344 2.61-1.391 2.793-3.221.184-1.84-.845-3.569-3.146-5.201Z" fill="#4B4E53"/><path fill-rule="evenodd" clip-rule="evenodd" d="M178.245 179.997c.318-1.998-1.059-3.873-3.076-4.188-2.017-.315-3.91 1.049-4.229 3.046l7.305 1.142ZM164.322 177.821c.318-1.998-1.059-3.873-3.076-4.188-2.017-.315-3.91 1.049-4.228 3.047l7.304 1.141Z" fill="#fff"/><path fill-rule="evenodd" clip-rule="evenodd" d="m178.571 180.44.061-.383c.352-2.209-1.171-4.282-3.402-4.631-2.23-.349-4.324 1.16-4.676 3.369l-.061.383 8.078 1.262Zm-7.16-1.904c.447-1.575 2.025-2.605 3.697-2.344a3.283 3.283 0 0 1 2.789 3.358l-6.486-1.014ZM164.647 178.264l.061-.383c.352-2.209-1.171-4.282-3.402-4.631-2.23-.348-4.324 1.16-4.676 3.369l-.061.383 8.078 1.262Zm-7.159-1.903c.447-1.576 2.024-2.606 3.696-2.345a3.284 3.284 0 0 1 2.789 3.358l-6.485-1.013Z" fill="#4B4E53"/><path fill-rule="evenodd" clip-rule="evenodd" d="M179.018 180.118c.318-1.998-1.059-3.873-3.076-4.188-2.017-.315-3.91 1.049-4.228 3.046l7.304 1.142ZM165.095 177.942c.318-1.998-1.059-3.873-3.076-4.188-2.017-.315-3.91 1.049-4.228 3.047l7.304 1.141Z" fill="#4B4E53" style="mix-blend-mode:multiply"/><path d="M176.371 103.066a1.386 1.386 0 0 1-1.59 1.137 1.377 1.377 0 0 1-1.158-1.566c.118-.746.833-1.255 1.589-1.137.759.118 1.278.82 1.159 1.566ZM184.88 104.395a1.385 1.385 0 0 1-1.59 1.137 1.377 1.377 0 0 1-1.159-1.566 1.388 1.388 0 0 1 1.59-1.137c.758.118 1.278.82 1.159 1.566ZM175.437 108.325c-.263 1.651.875 3.2 2.541 3.46 1.666.26 3.23-.866 3.493-2.517a.388.388 0 0 0-.326-.443.39.39 0 0 0-.447.322 2.27 2.27 0 0 1-2.598 1.872 2.252 2.252 0 0 1-1.889-2.573.389.389 0 0 0-.326-.443.39.39 0 0 0-.448.322Z" fill="#4B4E53"/><path fill-rule="evenodd" clip-rule="evenodd" d="m256.938 142.459-.35-2.345c-.011-.049-.248 1.198-.426 2.318l-2.988 18.758a4.665 4.665 0 0 1-4.529 3.939l-4.16 26.111-3.807-.595 4.149-26.048-5.33-.833-4.149 26.048-3.807-.595 4.149-26.047c-2.523-.395-4.241-2.772-3.836-5.311l3.166-19.879.307-1.922c-.005-.121-1.049 1.682-1.049 1.682a16.253 16.253 0 0 0-1.538 4.757l-2.182 13.699c-.31 1.365-1.078 1.952-2.306 1.76-1.228-.192-1.728-.977-1.501-2.355l2.195-13.781c.665-4.173 3.256-8.529 7.773-13.067a1.802 1.802 0 0 1 1.844-.443c.111.001.222.011.334.028l5.754.899.308-1.936a2.716 2.716 0 0 1 3.092-2.265 2.697 2.697 0 0 1 2.238 3.098l-.308 1.936 5.668.886c.054.008.107.018.159.03a1.79 1.79 0 0 1 1.464.979c2.887 5.695 3.999 10.629 3.334 14.802l-2.195 13.781c-.213 1.38-.933 1.975-2.161 1.783-1.228-.192-1.776-.985-1.647-2.378l2.183-13.698c.2-1.259.251-2.524.152-3.796Z" fill="#fff"/><path fill-rule="evenodd" clip-rule="evenodd" d="m256.588 140.114.35 2.345a16.131 16.131 0 0 1-.152 3.796l-2.183 13.698c-.129 1.393.419 2.186 1.647 2.378 1.228.192 1.948-.403 2.161-1.783l2.195-13.781c.665-4.173-.447-9.107-3.334-14.802a1.79 1.79 0 0 0-1.464-.979 2.03 2.03 0 0 0-.159-.03l-5.668-.886.308-1.936a2.697 2.697 0 0 0-2.238-3.098 2.716 2.716 0 0 0-3.092 2.265l-.308 1.936-5.754-.899a2.364 2.364 0 0 0-.334-.028 1.802 1.802 0 0 0-1.844.443c-4.517 4.538-7.108 8.894-7.773 13.067l-2.195 13.781c-.227 1.378.273 2.163 1.501 2.355 1.228.192 1.996-.395 2.306-1.76l2.182-13.699a16.253 16.253 0 0 1 1.538-4.757s1.044-1.803 1.049-1.682l-.307 1.922-3.166 19.879c-.405 2.539 1.313 4.916 3.836 5.311l-4.149 26.047 3.807.595 4.149-26.048 5.33.833-4.149 26.048 3.807.595 4.16-26.111a4.665 4.665 0 0 0 4.529-3.939l2.988-18.758c.178-1.12.415-2.367.426-2.318Zm-12.742 50.241-2.284-.357 4.149-26.048-6.853-1.071-4.149 26.048-2.285-.357 4.15-26.048-.762-.119c-2.102-.328-3.534-2.309-3.197-4.425l4.058-25.473-1.961 2.957c-1.43 2.158-2.343 4.466-2.733 6.916l-2.182 13.699c-.214.933-.615 1.239-1.423 1.113-.785-.123-1.022-.494-.862-1.466l2.195-13.785c.636-3.99 3.145-8.207 7.626-12.703.278-.233.649-.3.986-.189l.113.037.12.002c.074 0 .149.007.223.018l6.515 1.018.431-2.702a1.939 1.939 0 0 1 2.208-1.617 1.925 1.925 0 0 1 1.599 2.212l-.43 2.702 6.429 1.005c.036.005.072.012.107.02l.112.017c.324.025.616.198.839.56 2.819 5.562 3.895 10.339 3.259 14.329l-2.195 13.781c-.15.977-.491 1.258-1.277 1.136-.808-.127-1.094-.54-1.001-1.543l.004-.024 2.172-13.624a17.14 17.14 0 0 0-.241-6.585l-.887-3.867-4.007 25.149c-.299 1.878-1.905 3.26-3.773 3.282l-.653.008-4.14 25.994Z" fill="#4B4E53"/><path fill-rule="evenodd" clip-rule="evenodd" d="M248.102 127.045c9.01 1.408 17.49-4.83 18.94-13.934 1.45-9.103-4.679-17.624-13.688-19.032-9.01-1.407-17.49 4.831-18.94 13.934-1.45 9.104 4.679 17.624 13.688 19.032Z" fill="#fff"/><path fill-rule="evenodd" clip-rule="evenodd" d="M233.673 107.897c-1.516 9.517 4.891 18.426 14.31 19.897 9.419 1.472 18.284-5.05 19.8-14.567 1.516-9.517-4.891-18.425-14.31-19.897-9.419-1.472-18.284 5.05-19.8 14.567Zm33.369 5.214c-1.45 9.104-9.93 15.342-18.939 13.934-9.01-1.408-15.139-9.929-13.688-19.032 1.45-9.103 9.929-15.342 18.939-13.934 9.01 1.408 15.138 9.929 13.688 19.032Z" fill="#4B4E53"/><path d="M253.086 129.573c-1.25-.196-2.427-.992-2.935-1.976 0 0-9.017.189-9.675-.405-.679.409-1.595.577-2.437.464-.873-.116-1.559-.367-2.133-.829-.806.508-1.682.696-2.598.552-.913-.142-1.714-.589-2.386-1.322-1.669.841-3.211.761-4.513-.268-1.335-1.055-1.653-2.561-.963-4.347-1.177-.927-1.631-2.369-1.355-4.22.266-1.783 1.086-2.95 2.412-3.384a4.132 4.132 0 0 1 .509-3.064c.522-.875 1.229-1.451 2.094-1.701a4.382 4.382 0 0 1 .109-3.181c.441-1.063 1.084-1.875 1.921-2.417-.485-1.231-.486-2.462.002-3.653.362-.885 1.034-1.508 1.946-1.85a4.37 4.37 0 0 1 .871-.224c.154-.846.346-1.464.674-2.055a4.12 4.12 0 0 1 .705-.935c.86-.85 1.951-1.2 3.213-1.046.33-1.247 1.112-2.12 2.306-2.557 1.092-.4 2.127-.327 3.046.213.505-.875 1.233-1.43 2.158-1.627.984-.21 1.913.025 2.74.678.751-.584 1.705-.8 2.815-.647.989.136 1.766.49 2.3 1.064.751-.534 1.67-.72 2.717-.557 1.189.186 2.024.749 2.424 1.655.941-.03 1.712.147 2.309.544.587.39 1.023 1.007 1.315 1.835 1.438-.14 2.628.2 3.529 1.029.864.795 1.28 1.863 1.248 3.155 1.277.119 2.246.685 2.846 1.688.612 1.02.666 2.199.183 3.483 1.089.632 1.731 1.546 1.878 2.703.144 1.139-.209 2.308-1.036 3.497.492.545.798 1.327.932 2.331.157 1.183-.153 2.386-.912 3.593.939.825 1.435 1.78 1.456 2.843.017.892-.182 1.701-.597 2.41 1.07.886 1.5 2.207 1.275 3.869-.244 1.794-1.101 3.045-2.531 3.663-.443 2.119-1.548 3.4-3.271 3.715-1.508.276-2.756-.071-3.653-1.029-.832.475-1.63.661-2.387.543-.828-.13-1.567-.616-2.212-1.434-.362.043-.445.05-.637.058a3.778 3.778 0 0 1-1.424-.194c-.675-.221-1.182-.531-1.756-1.017-.983.432-1.501.513-2.522.354Z" fill="#fff"/><path d="M253.044 129.836c-1.25-.195-2.427-.991-2.935-1.976l.684-.36c.392.759 1.356 1.411 2.373 1.57.927.145 1.3.068 2.31-.394l.228-.104.186.166c.583.517 1.044.818 1.674 1.024.406.134.747.176 1.15.158.199-.01.27-.017.801-.079l.222-.027.132.181c.565.774 1.181 1.204 1.848 1.308.64.1 1.35-.096 2.139-.603l.293-.189.216.274c.724.918 1.766 1.259 3.135 1.008 1.431-.262 2.33-1.351 2.689-3.301l.04-.217.205-.078c1.272-.479 2.021-1.515 2.239-3.121.208-1.533-.214-2.646-1.248-3.352l-.325-.222.229-.323c.455-.642.676-1.396.659-2.262-.018-.911-.49-1.736-1.436-2.477l-.286-.225.208-.301c.797-1.156 1.119-2.27.976-3.345-.132-.995-.445-1.69-.925-2.095l-.28-.237.222-.294c.858-1.133 1.214-2.2 1.087-3.206-.127-.997-.713-1.756-1.773-2.279l-.331-.164.15-.34c.529-1.196.523-2.226-.003-3.103-.518-.865-1.38-1.312-2.602-1.337l-.412-.008.038-.413c.114-1.243-.214-2.21-.979-2.915-.786-.723-1.856-.991-3.224-.794l-.329.047-.094-.32c-.241-.825-.61-1.394-1.103-1.722-.499-.332-1.2-.47-2.116-.403l-.301.022-.092-.288c-.247-.774-.881-1.25-1.918-1.411-.978-.153-1.775.057-2.396.62l-.325.296-.25-.36c-.394-.57-1.068-.928-2.032-1.06-1.024-.142-1.836.085-2.442.667l-.261.251-.266-.245c-.713-.658-1.484-.893-2.322-.715-.808.172-1.414.698-1.82 1.59l-.2.44-.383-.289c-.798-.603-1.694-.724-2.696-.357-1.046.382-1.675 1.158-1.891 2.336l-.07.386-.384-.074c-1.179-.228-2.141.033-2.896.778-.223.221-.413.474-.571.759-.312.56-.486 1.175-.636 2.09l-.049.299-.299.027c-.339.03-.664.101-.967.215-.716.268-1.223.737-1.5 1.415-.447 1.091-.407 2.208.123 3.355l.153.332-.322.174c-.824.446-1.451 1.182-1.878 2.212-.414.997-.395 1.998.057 3.006l.21.47-.508.075c-.844.123-1.516.598-2.013 1.432-.524.88-.635 1.821-.332 2.83l.123.407-.416.086c-1.209.249-1.948 1.187-2.195 2.84-.254 1.702.18 2.914 1.281 3.65l.269.179-.131.299c-.708 1.608-.496 2.839.616 3.718 1.114.88 2.422.904 3.939.052l.282-.158.203.25c.597.735 1.303 1.163 2.118 1.29.81.126 1.57-.068 2.282-.587l.261-.19.231.222c.49.47 1.094.716 1.94.83.769.102 1.621-.089 2.135-.496l.269-.214.242.242c.63.632 1.073.822 2.002.944.841.111 1.681-.169 2.011-.74l.666.387c-.512.886-1.662 1.269-2.781 1.122-.972-.128-1.554-.347-2.212-.941-.679.409-1.595.577-2.437.464-.873-.117-1.559-.367-2.133-.829-.806.507-1.682.695-2.598.552-.913-.143-1.714-.589-2.386-1.323-1.669.842-3.211.762-4.513-.267-1.335-1.056-1.653-2.561-.963-4.348-1.177-.927-1.631-2.369-1.355-4.219.266-1.783 1.086-2.95 2.412-3.384a4.131 4.131 0 0 1 .509-3.064c.522-.875 1.229-1.451 2.094-1.702a4.38 4.38 0 0 1 .109-3.18c.441-1.063 1.084-1.875 1.921-2.417-.485-1.232-.486-2.462.002-3.653.362-.885 1.034-1.508 1.946-1.85.279-.104.571-.179.871-.225.154-.845.346-1.463.674-2.055a4.12 4.12 0 0 1 .705-.934c.86-.85 1.951-1.2 3.214-1.047.329-1.246 1.111-2.12 2.305-2.557 1.092-.4 2.127-.326 3.046.213.505-.875 1.233-1.43 2.158-1.626.984-.21 1.913.024 2.74.677.751-.583 1.705-.799 2.815-.646.989.136 1.766.49 2.3 1.064.751-.534 1.67-.72 2.717-.557 1.189.185 2.024.748 2.424 1.655.941-.03 1.712.146 2.309.544.587.39 1.023 1.007 1.315 1.835 1.438-.141 2.628.199 3.529 1.028.864.795 1.28 1.864 1.248 3.156 1.277.118 2.246.685 2.846 1.687.612 1.021.666 2.199.183 3.484 1.089.631 1.731 1.545 1.878 2.703.144 1.139-.209 2.308-1.036 3.496.492.546.798 1.328.932 2.331.157 1.184-.153 2.387-.912 3.594.939.825 1.435 1.779 1.456 2.843.017.892-.182 1.7-.597 2.409 1.07.887 1.5 2.208 1.275 3.87-.244 1.793-1.101 3.045-2.531 3.663-.443 2.118-1.548 3.399-3.271 3.715-1.508.276-2.756-.071-3.653-1.029-.832.474-1.63.661-2.387.542-.828-.129-1.567-.615-2.212-1.433a7.5 7.5 0 0 1-.637.058 3.778 3.778 0 0 1-1.424-.194c-.675-.221-1.182-.532-1.756-1.017-.983.431-1.501.513-2.522.353Z" fill="#4B4E53"/><path d="M236.259 120.376a16.318 16.318 0 0 0 11.348 7.5c4.855.758 9.706-.691 13.36-3.873l-.467-.543c-3.496 3.044-8.135 4.43-12.779 3.704a15.61 15.61 0 0 1-10.856-7.173l-.606.385Z" fill="#4B4E53"/><path d="M238.269 113.995c.165-1.036-.096-1.996-.769-2.861 1.56-.554 2.584-1.312 3.057-2.292a5.563 5.563 0 0 0 .459-3.222c5.695 1.665 11.815 1.139 15.323-2.341.986 2.911 3.606 5.639 6.563 6.39l-.081.095c-.79.946-1.182 1.768-1.172 2.881.008.999.353 1.904 1.026 2.705-.903.621-1.434 1.359-1.571 2.213-.137.866.14 1.796.811 2.786-.928.632-1.469 1.351-1.599 2.162-.079.496-.038.998.121 1.501.059.189.26.293.449.233a.362.362 0 0 0 .233-.453 2.532 2.532 0 0 1-.096-1.171c.106-.661.623-1.285 1.587-1.865l.344-.207-.241-.32c-.727-.967-1.019-1.818-.902-2.555.117-.729.637-1.375 1.597-1.941l.4-.235-.326-.329c-.741-.75-1.109-1.589-1.117-2.534-.008-.909.314-1.583 1.003-2.409.08-.096.4-.467.476-.558l.404-.487-.621-.098c-3.106-.489-5.985-3.523-6.776-6.594l-.168-.654-.446.508c-3.307 3.764-9.755 4.291-15.621 2.4l-.714-.23.269.703c.304.798.287 2.182-.259 3.315-.419.871-1.459 1.575-3.141 2.087l-.567.172.412.424c.793.816 1.101 1.696.945 2.671-.156.983-.641 1.694-1.471 2.16l-.38.214.279.333c.647.771.9 1.513.784 2.24-.082.516-.249.916-.496 1.208a.36.36 0 0 0 .039.507c.151.129.377.11.505-.042.339-.4.558-.923.659-1.562.134-.841-.102-1.675-.69-2.493.814-.575 1.31-1.4 1.479-2.455Z" fill="#4B4E53"/><path fill-rule="evenodd" clip-rule="evenodd" d="m244.469 129.601-5.605-.876a1.94 1.94 0 0 0-2.209 1.618l-6.529 40.986 20.708 3.236 6.529-40.986a1.926 1.926 0 0 0-1.599-2.213l-5.689-.889-4.311 8.909-1.295-9.785Z" fill="#fff"/><path fill-rule="evenodd" clip-rule="evenodd" d="m249.633 129.623-3.442 7.111-1.033-7.81-6.173-.965a2.716 2.716 0 0 0-3.092 2.265l-6.651 41.753 22.231 3.473 6.651-41.752a2.697 2.697 0 0 0-2.238-3.098l-6.253-.977Zm-10.77-.898 5.606.876 1.294 9.785 4.312-8.909 5.689.889a1.927 1.927 0 0 1 1.599 2.213l-6.529 40.986-20.708-3.235 6.529-40.987a1.94 1.94 0 0 1 2.208-1.618Z" fill="#4B4E53"/><path fill-rule="evenodd" clip-rule="evenodd" d="m246.376 130.291-6.133-.958a3.011 3.011 0 0 0-3.436 2.5l-6.484 40.705 21.47 3.355 6.484-40.706a2.988 2.988 0 0 0-2.492-3.425l-6.223-.973c.324.565.383 1.278.067 1.931-.896 1.851-3.649 1.416-3.918-.62a2.062 2.062 0 0 1 .665-1.809Z" fill="#FCD7BE" style="mix-blend-mode:multiply"/><path fill-rule="evenodd" clip-rule="evenodd" d="M248.664 191.673c.318-1.998-1.034-3.868-3.019-4.179-1.986-.31-3.853 1.058-4.171 3.056l7.19 1.123ZM234.958 189.531c.318-1.997-1.034-3.868-3.019-4.178-1.986-.31-3.853 1.057-4.171 3.055l7.19 1.123Z" fill="#fff"/><path fill-rule="evenodd" clip-rule="evenodd" d="m248.984 192.116.061-.383c.352-2.209-1.143-4.278-3.339-4.622-2.196-.343-4.261 1.17-4.613 3.379l-.061.383 7.952 1.243Zm-7.046-1.886c.444-1.576 2-2.61 3.646-2.352a3.25 3.25 0 0 1 2.738 3.349l-6.384-.997ZM235.278 189.974l.061-.383c.352-2.209-1.143-4.278-3.339-4.621-2.196-.343-4.261 1.17-4.613 3.379l-.061.383 7.952 1.242Zm-7.046-1.886a3.274 3.274 0 0 1 3.646-2.352 3.25 3.25 0 0 1 2.738 3.35l-6.384-.998Z" fill="#4B4E53"/><path fill-rule="evenodd" clip-rule="evenodd" d="M249.425 191.792c.319-1.997-1.033-3.868-3.019-4.179-1.985-.31-3.852 1.058-4.171 3.056l7.19 1.123ZM235.719 189.651c.318-1.998-1.033-3.869-3.019-4.179-1.985-.31-3.852 1.058-4.171 3.055l7.19 1.124Z" fill="#4B4E53" style="mix-blend-mode:multiply"/><path d="M247.005 114.777a1.374 1.374 0 0 1-1.568 1.14 1.367 1.367 0 0 1-1.138-1.563 1.376 1.376 0 0 1 1.568-1.14 1.365 1.365 0 0 1 1.138 1.563ZM255.381 116.086a1.374 1.374 0 0 1-1.568 1.14 1.366 1.366 0 0 1-1.138-1.563 1.376 1.376 0 0 1 1.568-1.14 1.365 1.365 0 0 1 1.138 1.563ZM246.072 120.036a3.005 3.005 0 0 0 2.494 3.453c1.64.256 3.183-.874 3.446-2.525a.386.386 0 1 0-.762-.118 2.25 2.25 0 0 1-2.562 1.876 2.234 2.234 0 0 1-1.855-2.567.385.385 0 1 0-.761-.119Z" fill="#4B4E53"/><path fill-rule="evenodd" clip-rule="evenodd" d="m196.098 163.376-1.094 1.333-2.837 3.455c-.907.903-1.794 1.01-2.66.32-.866-.69-.929-1.554-.189-2.59l8.124-9.895c.141-.245.321-.463.531-.647l.079-.095a1.847 1.847 0 0 1 2.176-.508l3.501.547.277-1.743c.22-1.376 1.531-2.315 2.929-2.097 1.399.219 2.355 1.512 2.135 2.888l-.277 1.743 3.528.551c.084.014.167.031.248.051a1.837 1.837 0 0 1 1.955 1.142l5.003 12.783c.382 1.212.054 2.014-.985 2.407-1.039.392-1.849.02-2.431-1.116l-1.916-4.895-.626-1.601-.769 4.822c-.439 2.76-2.897 4.227-2.897 4.227l-1.65 10.354-3.617-.565 1.567-9.839-5.064-.791-1.567 9.838-3.617-.565 1.649-10.354c-1.582-1.094-2.486-3.012-2.166-5.018l.39-2.448.27-1.694Z" fill="#fff"/><path fill-rule="evenodd" clip-rule="evenodd" d="m195.004 164.709 1.094-1.333-.27 1.694-.39 2.448c-.32 2.006.584 3.924 2.166 5.018l-1.649 10.354 3.617.565 1.567-9.838 5.064.791-1.567 9.839 3.617.565 1.65-10.354s2.458-1.467 2.897-4.227l.769-4.822.626 1.601 1.916 4.895c.582 1.136 1.392 1.508 2.431 1.116 1.039-.393 1.367-1.195.985-2.407l-5.003-12.783a1.837 1.837 0 0 0-1.955-1.142 3.298 3.298 0 0 0-.248-.051l-3.528-.551.277-1.743c.22-1.376-.736-2.669-2.135-2.888-1.398-.218-2.709.721-2.929 2.097l-.277 1.743-3.501-.547a1.847 1.847 0 0 0-2.176.508l-.079.095c-.21.184-.39.402-.531.647l-8.124 9.895c-.74 1.036-.677 1.9.189 2.59.866.69 1.753.583 2.66-.32l2.837-3.455Zm16.936 5.388c-.241 1.516-1.444 3.137-2.867 3.69l-1.617 10.152-1.843-.288 1.586-9.955-6.785-1.06-1.567 9.838-1.897-.296 1.599-10.035-.445-.308a4.267 4.267 0 0 1-1.806-4.182l1.163-7.303-5.972 7.274c-.551.543-.938.59-1.435.194-.488-.389-.514-.743-.023-1.43l.232-.28.285-.347 7.572-9.222.08-.116c.093-.161.212-.306.353-.43l.098-.101.078-.095a.97.97 0 0 1 1.141-.267l.107.048 4.477.699.413-2.589c.144-.909 1.01-1.529 1.934-1.385a1.673 1.673 0 0 1 1.409 1.907l-.412 2.59 4.388.685c.056.009.111.02.166.034l.166.042.169-.022a.964.964 0 0 1 1.025.599l5.003 12.783c.234.749.099 1.078-.486 1.299-.596.225-.95.063-1.341-.7l-.001-.004c-1.235-3.167-1.236-3.168-2.506-6.414l-1.169-2.988-1.272 7.983Z" fill="#4B4E53"/><path fill-rule="evenodd" clip-rule="evenodd" d="M223.487 142.348c-1.279 8.029-8.87 13.514-16.958 12.25-8.089-1.264-13.608-8.798-12.329-16.826 1.279-8.029 8.872-13.514 16.961-12.25 8.088 1.264 13.605 8.797 12.326 16.826Z" fill="#fff"/><path fill-rule="evenodd" clip-rule="evenodd" d="M206.529 154.598c8.088 1.264 15.679-4.221 16.958-12.25 1.279-8.029-4.238-15.562-12.326-16.826-8.089-1.264-15.682 4.221-16.961 12.25-1.279 8.028 4.24 15.562 12.329 16.826Zm4.497-28.229c7.611 1.189 12.806 8.282 11.601 15.844-1.205 7.563-8.352 12.728-15.963 11.538-7.612-1.189-12.809-8.282-11.604-15.845 1.205-7.562 8.354-12.727 15.966-11.537Z" fill="#4B4F54"/><path fill-rule="evenodd" clip-rule="evenodd" d="m195.401 167.702.265-1.664 17.207 2.681-.266 1.671a4.456 4.456 0 0 1-2.656 3.389l-.567 3.557-4.129-.645.456-2.865-4.129-.645-.457 2.864-4.129-.645.51-3.202a4.441 4.441 0 0 1-2.105-4.496Z" fill="#fff"/><path fill-rule="evenodd" clip-rule="evenodd" d="m195.666 166.038-.265 1.664a4.441 4.441 0 0 0 2.105 4.496l-.51 3.202 4.129.645.457-2.864 4.129.645-.456 2.865 4.129.645.567-3.557a4.456 4.456 0 0 0 2.656-3.389l.266-1.671-17.207-2.681Zm2.387 5.68a3.764 3.764 0 0 1-1.964-3.909l.157-.986 15.831 2.466-.158.994a3.775 3.775 0 0 1-2.408 2.932l-.187.071-.52 3.265-2.753-.43.456-2.865-5.506-.86-.456 2.864-2.753-.43.477-2.996-.216-.116Z" fill="#4B4E53"/><path fill-rule="evenodd" clip-rule="evenodd" d="M213.055 169.789a5.485 5.485 0 0 1-3.531 4.286l.714.111-.564 3.542-3.441-.537.456-2.865-4.818-.752-.456 2.864-3.441-.538.564-3.542.021.003a5.436 5.436 0 0 1-2.023-5.146l16.519 2.574Z" fill="#CDCCFB" style="mix-blend-mode:multiply"/><path fill-rule="evenodd" clip-rule="evenodd" d="m200.073 154.94-.09-.026a1.437 1.437 0 0 0-1.7.412l-3.538 4.378 2.428 2.019-.798 5.013 16.289 2.584.82-5.147 2.762-1.11-2.007-5.244a1.43 1.43 0 0 0-1.489-.911l-.094-.002-3.636-.568a2.621 2.621 0 0 1-2.871 1.714 2.601 2.601 0 0 1-2.199-2.506l-3.877-.606Z" fill="#fff"/><path fill-rule="evenodd" clip-rule="evenodd" d="m204.677 155.277.036-.339-4.482-.701a2.159 2.159 0 0 0-2.505.638l-3.985 4.93 2.659 2.21-.847 5.318 17.705 2.809.869-5.455 3.041-1.221-2.259-5.906a2.146 2.146 0 0 0-2.185-1.371l-4.242-.662-.071.333a1.902 1.902 0 0 1-2.149 1.483 1.889 1.889 0 0 1-1.585-2.066Zm-4.694-.363.09.026 3.877.606c.03 1.239.94 2.31 2.198 2.506a2.622 2.622 0 0 0 2.872-1.714l3.636.568.094.002a1.43 1.43 0 0 1 1.489.911l2.006 5.244-2.762 1.11-.82 5.147-16.289-2.584.799-5.013-2.429-2.019 3.539-4.378a1.437 1.437 0 0 1 1.7-.412Z" fill="#4B4E53"/><path fill-rule="evenodd" clip-rule="evenodd" d="m204.916 156.06-3.356-.524a3.071 3.071 0 0 0-.625-.033 1.82 1.82 0 0 0-2.307.422l-3.826 4.66 2.579 2.111-.822 5.159 16.998 2.696.843-5.292 2.934-1.154-2.191-5.599a1.813 1.813 0 0 0-2.007-1.117 3.03 3.03 0 0 0-.501-.123l-3.277-.512a2.26 2.26 0 0 1-2.557 1.764 2.242 2.242 0 0 1-1.885-2.458Z" fill="#fff" style="mix-blend-mode:multiply"/><path fill-rule="evenodd" clip-rule="evenodd" d="m208.259 162.78-.283 1.775a1.072 1.072 0 0 0 .893 1.23l2.126.333a1.081 1.081 0 0 0 1.232-.899l.283-1.775-4.251-.664Z" fill="#CDCCFB"/><path fill-rule="evenodd" clip-rule="evenodd" d="m212.936 165.33.396-2.484-5.668-.886-.396 2.484a1.789 1.789 0 0 0 1.489 2.051l2.125.332a1.8 1.8 0 0 0 2.054-1.497Zm-4.959-.775.282-1.775 4.251.665-.282 1.774c-.094.588-.646.99-1.233.899l-2.125-.332a1.073 1.073 0 0 1-.893-1.231Z" fill="#4B4E53"/><path fill-rule="evenodd" clip-rule="evenodd" d="M209.268 181.802c-1.501-.234-2.913.646-3.347 2.01l5.907.923c.011-1.43-1.058-2.698-2.56-2.933Z" fill="#fff"/><path fill-rule="evenodd" clip-rule="evenodd" d="m212.585 185.722.067-.423c.329-2.068-1.127-4.011-3.25-4.343-2.122-.331-4.112 1.073-4.441 3.141l-.068.423 7.692 1.202Zm-6.665-1.909c.434-1.364 1.846-2.244 3.347-2.01 1.502.235 2.572 1.503 2.561 2.933l-5.908-.923Z" fill="#4B4E53"/><path fill-rule="evenodd" clip-rule="evenodd" d="M196.246 179.768c-1.502-.234-2.914.646-3.348 2.01l5.908.923c.011-1.43-1.059-2.698-2.56-2.933Z" fill="#fff"/><path fill-rule="evenodd" clip-rule="evenodd" d="m199.563 183.687.068-.424c.329-2.067-1.127-4.01-3.25-4.342-2.123-.331-4.112 1.073-4.442 3.141l-.067.423 7.691 1.202Zm-6.664-1.909c.433-1.364 1.845-2.245 3.347-2.01 1.501.235 2.571 1.503 2.56 2.933l-5.907-.923Z" fill="#4B4E53"/><path fill-rule="evenodd" clip-rule="evenodd" d="M212.946 185.344c.292-1.832-1.001-3.557-2.887-3.851-1.886-.295-3.652.951-3.944 2.784l6.831 1.067ZM199.924 183.309c.292-1.832-1.001-3.557-2.887-3.851-1.887-.295-3.653.951-3.944 2.784l6.831 1.067Z" fill="#90949B" style="mix-blend-mode:multiply"/><path fill-rule="evenodd" clip-rule="evenodd" d="M225.191 152.473s1.766-8.876 1.729-13.146c-.036-4.27-5.273-14.326-15.307-15.784-10.035-1.459-16.666 7.042-16.666 7.042l2.453.812s2.477 4.08 6.2 6.261c3.723 2.181 10.674 2.994 14.262 4.518 3.589 1.525 5.659 3.423 5.366 6.032-.392 1.91-2.263 2.099-2.263 2.099l4.226 2.166Z" fill="#fff"/><path d="m189.533 149.146 1.797-11.281c1.463-9.186 10.332-15.434 19.811-13.953 9.481 1.481 15.975 10.129 14.512 19.316l-1.797 11.281-9.217-1.44-.832.564 10.629 1.661 1.905-11.958c1.523-9.564-5.234-18.561-15.092-20.102-9.857-1.54-19.084 4.961-20.607 14.524l-1.905 11.958 10.933 1.708-1.097-.866-9.04-1.412Z" fill="#4B4F54"/><path fill-rule="evenodd" clip-rule="evenodd" d="M197.222 131.103a.35.35 0 0 1 .477.119l.001.002.005.008.02.032.083.129c.073.113.182.277.324.482.286.41.706.98 1.24 1.617 1.072 1.278 2.592 2.81 4.405 3.872 1.812 1.061 4.431 1.8 7.09 2.468l1.322.327c2.181.537 4.29 1.057 5.811 1.703 1.814.77 3.279 1.649 4.256 2.691.988 1.054 1.477 2.276 1.318 3.694a.313.313 0 0 1-.005.03c-.22 1.072-.863 1.672-1.448 1.996a3.433 3.433 0 0 1-1.014.361l-.073.011a.401.401 0 0 0-.022.003h-.006l-.003.001h-.001l-.037-.341.037.341a.348.348 0 0 1-.383-.306.344.344 0 0 1 .309-.377h.001l.01-.001.047-.007c.043-.008.108-.02.187-.041.161-.042.378-.116.605-.242.445-.246.93-.692 1.105-1.52.129-1.185-.271-2.211-1.138-3.137-.882-.94-2.246-1.773-4.02-2.526-1.464-.622-3.502-1.125-5.684-1.662-.444-.109-.893-.22-1.345-.334-2.645-.664-5.363-1.423-7.274-2.543-1.91-1.118-3.49-2.717-4.587-4.025a23.66 23.66 0 0 1-1.277-1.665 19.523 19.523 0 0 1-.338-.502l-.087-.138-.023-.036-.006-.01-.002-.003v-.001l.298-.176-.298.176a.339.339 0 0 1 .12-.47Z" fill="#4B4E53"/><path fill-rule="evenodd" clip-rule="evenodd" d="M212.203 126.088a.34.34 0 0 1-.13-.578l6.372-5.806a.35.35 0 0 1 .578.181l1.938 9.001-8.758-2.798Z" fill="#fff"/><path fill-rule="evenodd" clip-rule="evenodd" d="M229.219 130.803a.341.341 0 0 1 .128.58l-6.724 6.036a.35.35 0 0 1-.575-.183l-2.018-9.368 9.189 2.935Z" fill="#fff"/><path fill-rule="evenodd" clip-rule="evenodd" d="M212.073 125.51a.34.34 0 0 0 .13.578l7.993 2.554 1.851 8.593a.35.35 0 0 0 .576.183l6.724-6.035a.341.341 0 0 0-.128-.58l-8.425-2.691-1.771-8.227a.35.35 0 0 0-.578-.181l-6.372 5.806Zm8.721 2.602-.764-.244.166.774.765.244-.167-.774Zm.167.774 7.473 2.387-5.832 5.235-1.641-7.622Zm-7.979-3.269 5.486-4.999 1.562 7.25-7.048-2.251Z" fill="#4B4F54"/><path d="m222.968 137.95-3.706-17.209-6.372 5.806 16.802 5.367-6.724 6.036Z" fill="#CDCCFB" style="mix-blend-mode:multiply"/><path d="M203.969 148.642c-.249 1.559.824 3.022 2.397 3.268s3.048-.82 3.296-2.378a.43.43 0 0 0-.363-.491.434.434 0 0 0-.497.356 2.012 2.012 0 0 1-2.301 1.666 1.998 1.998 0 0 1-1.672-2.286.43.43 0 0 0-.363-.491.433.433 0 0 0-.497.356ZM204.295 143.532a1.34 1.34 0 0 1-1.533 1.109 1.331 1.331 0 1 1 .419-2.631 1.33 1.33 0 0 1 1.114 1.522ZM212.824 144.865a1.344 1.344 0 0 1-1.534 1.109 1.332 1.332 0 0 1-1.114-1.523 1.34 1.34 0 0 1 2.648.414Z" fill="#4B4E53"/></g><g filter="url(#e)"><path d="m106.213 177.539-36.17 7.451c-6.813 1.404-13.516-2.951-14.932-9.695l-4.18-19.902c-1.416-6.745 2.977-13.383 9.79-14.786l36.17-7.452c6.814-1.403 13.516 2.949 14.932 9.693l4.18 19.902c1.416 6.745-2.977 13.385-9.79 14.789Z" fill="#fff"/><path d="M96.177 134.861a1.333 1.333 0 0 1-1.585-1.026l-4.535-21.597c-1.6-7.617-9.714-10.718-16.628-9.293l-2.097.432c-7.4 1.524-14.293 8.069-12.764 15.348l4.536 21.597a1.32 1.32 0 0 1-1.04 1.567 1.334 1.334 0 0 1-1.584-1.027l-4.536-21.596c-1.856-8.839 6.175-16.702 14.842-18.488l2.097-.432c9.36-1.928 18.056 3.059 19.798 11.352l4.535 21.596a1.32 1.32 0 0 1-1.04 1.567Z" fill="#4B4E53"/><path fill-rule="evenodd" clip-rule="evenodd" d="m70.042 184.99 36.171-7.451c6.813-1.404 11.206-8.044 9.79-14.789l-4.18-19.902c-1.416-6.744-8.118-11.096-14.931-9.693l-36.171 7.452c-6.813 1.403-11.206 8.041-9.79 14.786l4.18 19.902c1.416 6.744 8.119 11.099 14.931 9.695Zm44.014-21.839c1.193 5.68-2.51 11.277-8.248 12.459l-36.17 7.452c-5.738 1.182-11.388-2.489-12.58-8.169l-4.18-19.902c-1.194-5.679 2.51-11.275 8.248-12.457l36.17-7.451c5.738-1.182 11.387 2.486 12.58 8.166l4.18 19.902Z" fill="#4B4E53"/><path d="M81.239 148.458c-2.956.608-4.858 3.492-4.244 6.413.345 1.643 1.451 3.024 3.035 3.777.385.17.664.528.754.952l1.398 6.661c.156.74.879 1.2 1.618 1.048l2.68-.552a1.349 1.349 0 0 0 1.061-1.6l-1.399-6.661a1.32 1.32 0 0 1 .308-1.17c1.149-1.317 1.607-3.02 1.262-4.662-.613-2.922-3.518-4.815-6.473-4.206Z" fill="#fff"/><path fill-rule="evenodd" clip-rule="evenodd" d="M76.02 155.072c-.724-3.453 1.521-6.859 5.015-7.579 3.494-.719 6.925 1.517 7.65 4.97.41 1.954-.14 3.967-1.484 5.506l-.01.011-.01.01a.348.348 0 0 0-.066.306l1.398 6.66a2.334 2.334 0 0 1-1.832 2.765l-2.68.552c-1.27.262-2.524-.533-2.793-1.812l-1.399-6.66a.35.35 0 0 0-.184-.254l-.013-.005-.013-.007c-1.853-.881-3.168-2.509-3.578-4.463Zm5.42-5.651c-2.416.498-3.975 2.859-3.473 5.25.28 1.327 1.173 2.458 2.482 3.084.69.311 1.159.938 1.307 1.644l1.399 6.661a.367.367 0 0 0 .442.285l2.68-.552a.364.364 0 0 0 .29-.436l-1.4-6.66a2.3 2.3 0 0 1 .537-2.024c.949-1.092 1.313-2.481 1.034-3.809-.502-2.391-2.882-3.94-5.298-3.443Z" fill="#4B4E53"/></g><g filter="url(#f)"><path fill-rule="evenodd" clip-rule="evenodd" d="M4.97 94.037c0 7.586 6.235 13.763 13.896 13.763 7.661 0 13.895-6.177 13.895-13.763 0-7.6-6.226-13.762-13.895-13.762S4.971 86.437 4.971 94.037Zm25.803.001c0 6.498-5.344 11.793-11.907 11.793S6.959 100.536 6.959 94.038c0-6.513 5.336-11.793 11.907-11.793s11.907 5.28 11.907 11.793Z" fill="#4B4E53"/><path d="m31.439 89.49 40.518-16.808a.981.981 0 0 0 .533-1.288.998.998 0 0 0-1.301-.528L30.67 87.674a.981.981 0 0 0-.533 1.289.998.998 0 0 0 1.301.527Z" fill="#4B4E53"/><path d="m54.809 77.935 11.97-4.79a.931.931 0 0 1 1.207.508l3.454 8.468a.916.916 0 0 1-.512 1.196l-11.97 4.79a.931.931 0 0 1-1.208-.508l-3.454-8.468a.916.916 0 0 1 .513-1.196Z" fill="#fff"/><path fill-rule="evenodd" clip-rule="evenodd" d="M67.019 72.666 54.287 78.02a.981.981 0 0 0-.526 1.29l3.86 9.007c.214.5.798.734 1.303.522l12.732-5.352a.981.981 0 0 0 .526-1.291l-3.86-9.007a.998.998 0 0 0-1.303-.522Zm2.944 9.392L59.06 86.641l-3.083-7.194 10.901-4.583 3.084 7.194Z" fill="#4B4E53"/><path d="m58.868 78.533 1.268 3.091a.998.998 0 0 0 1.295.542.981.981 0 0 0 .547-1.282l-1.268-3.092a.997.997 0 0 0-1.295-.542.982.982 0 0 0-.547 1.283Z" fill="#4B4E53"/></g></g><defs><filter id="b" x="91.392" y="29.539" width="249.564" height="204.38" filterUnits="userSpaceOnUse" color-interpolation-filters="sRGB"><feFlood flood-opacity="0" result="BackgroundImageFix"/><feColorMatrix in="SourceAlpha" values="0 0 0 0 0 0 0 0 0 0 0 0 0 0 0 0 0 0 127 0"/><feOffset dy="4"/><feGaussianBlur stdDeviation="2"/><feColorMatrix values="0 0 0 0 0 0 0 0 0 0 0 0 0 0 0 0 0 0 0.25 0"/><feBlend in2="BackgroundImageFix" result="effect1_dropShadow"/><feBlend in="SourceGraphic" in2="effect1_dropShadow" result="shape"/></filter><filter id="e" x="46.665" y="99.933" width="73.603" height="93.32" filterUnits="userSpaceOnUse" color-interpolation-filters="sRGB"><feFlood flood-opacity="0" result="BackgroundImageFix"/><feColorMatrix in="SourceAlpha" values="0 0 0 0 0 0 0 0 0 0 0 0 0 0 0 0 0 0 127 0"/><feOffset dy="4"/><feGaussianBlur stdDeviation="2"/><feColorMatrix values="0 0 0 0 0 0 0 0 0 0 0 0 0 0 0 0 0 0 0.25 0"/><feBlend in2="BackgroundImageFix" result="effect1_dropShadow"/><feBlend in="SourceGraphic" in2="effect1_dropShadow" result="shape"/></filter><filter id="f" x=".971" y="70.789" width="75.597" height="45.011" filterUnits="userSpaceOnUse" color-interpolation-filters="sRGB"><feFlood flood-opacity="0" result="BackgroundImageFix"/><feColorMatrix in="SourceAlpha" values="0 0 0 0 0 0 0 0 0 0 0 0 0 0 0 0 0 0 127 0"/><feOffset dy="4"/><feGaussianBlur stdDeviation="2"/><feColorMatrix values="0 0 0 0 0 0 0 0 0 0 0 0 0 0 0 0 0 0 0.25 0"/><feBlend in2="BackgroundImageFix" result="effect1_dropShadow"/><feBlend in="SourceGraphic" in2="effect1_dropShadow" result="shape"/></filter><clipPath id="a"><path fill="#fff" d="M0 0h339v256H0z"/></clipPath></defs></svg>