<svg width="296" height="130" fill="none" xmlns="http://www.w3.org/2000/svg"><g clip-path="url(#a)"><path fill="#fff" d="M0 0h296v130H0z"/><g filter="url(#b)"><path fill="#fff" d="m117.337 18.01 77.023-.075-.175 90.84-77.023.076z"/></g><mask id="c" mask-type="alpha" maskUnits="userSpaceOnUse" x="133" y="21" width="46" height="46"><path fill-rule="evenodd" clip-rule="evenodd" d="M155.767 66.891c12.423-.012 22.507-10.079 22.524-22.485.017-12.406-10.04-22.454-22.463-22.441-12.423.012-22.508 10.079-22.525 22.485-.017 12.406 10.041 22.453 22.464 22.441Z" fill="#fff"/></mask><g mask="url(#c)"><path d="M161.29 37.944a.522.522 0 0 0 .615-.406 6.52 6.52 0 0 0 .134-1.315c.002-3.609-2.95-6.53-6.592-6.527-3.643.004-6.598 2.93-6.6 6.538 0 .518.059 1.026.178 1.517a.52.52 0 0 0 .629.382c.279-.068 11.354-.247 11.636-.19Z" fill="#fff"/><path d="M149.685 37.74a5.807 5.807 0 0 1-.159-1.356c.002-3.233 2.652-5.857 5.921-5.86 3.27-.002 5.917 2.617 5.915 5.85 0 .399-.041.791-.121 1.18a.556.556 0 0 0 1.088.22c.095-.46.143-.928.143-1.401.002-3.845-3.143-6.958-7.024-6.954-3.881.003-7.03 3.121-7.032 6.966 0 .553.063 1.093.19 1.616a.555.555 0 0 0 1.079-.26Z" fill="#4B4E53"/><path d="M168.498 48.709c-.004 7.162-5.871 12.971-13.103 12.978-7.233.006-13.095-5.793-13.091-12.956.004-7.162 5.873-12.971 13.105-12.978 7.233-.006 13.093 5.793 13.089 12.956Z" fill="#fff"/><path fill-rule="evenodd" clip-rule="evenodd" d="M155.396 61.688c7.232-.006 13.098-5.816 13.101-12.979.004-7.163-5.856-12.963-13.088-12.957-7.232.006-13.099 5.816-13.103 12.979-.003 7.163 5.858 12.963 13.09 12.957Zm.013-24.828c6.62-.006 11.982 5.301 11.978 11.852-.003 6.55-5.37 11.866-11.99 11.872-6.621.005-11.984-5.302-11.981-11.852.004-6.55 5.372-11.867 11.993-11.872Z" fill="#4B4E53"/><path d="M144.878 41.812c.079.24.262.626.586 1.106.525.78 1.261 1.553 2.24 2.27.822.6 1.782 1.135 2.893 1.59 1.238.506 2.794.78 6.077 1.176l1.516.182c.587.071 1.074.133 1.54.196 5.952.8 9.045 2 9.849 4.405.377 1.128-.31 2.474-1.21 2.662a.554.554 0 0 0-.43.655c.063.3.357.49.657.428 1.578-.33 2.615-2.365 2.037-4.095-.998-2.986-4.367-4.292-10.753-5.151-.472-.064-.963-.126-1.554-.198l-1.517-.182c-3.171-.382-4.681-.648-5.789-1.102a12.47 12.47 0 0 1-2.657-1.458c-.875-.64-1.522-1.32-1.977-1.995a4.894 4.894 0 0 1-.366-.632 2.296 2.296 0 0 1-.087-.202.555.555 0 0 0-1.055.345ZM152.985 51.492a.993.993 0 0 1-.997.986.99.99 0 0 1-.996-.985c0-.544.449-.986.997-.986.55 0 .996.44.996.985Z" fill="#4B4E53"/><path d="M159.594 51.486a.993.993 0 0 1-.997.986.991.991 0 0 1-.996-.985c0-.544.449-.985.997-.986.55 0 .997.44.996.985ZM157.413 55.064c0 1.046-.859 1.896-1.919 1.897a1.902 1.902 0 0 1-1.916-1.893.556.556 0 0 0-1.111.001c0 1.658 1.354 3 3.026 2.998 1.672-.002 3.03-1.346 3.031-3.004a.555.555 0 0 0-1.111.001Z" fill="#4B4E53"/></g><path d="M195.096 35.87c8.922 0 16.154-7.227 16.154-16.142 0-8.914-7.232-16.141-16.154-16.141-8.921 0-16.154 7.227-16.154 16.141 0 8.915 7.233 16.142 16.154 16.142Z" fill="#FCD7BE"/><path fill-rule="evenodd" clip-rule="evenodd" d="M192.853 34.226c-4.252 0-8.504-1.583-11.74-4.75-4.182-4.11-5.83-10.147-4.303-15.75a.763.763 0 0 1 .926-.54c.403.12.643.525.534.927-1.386 5.095.11 10.566 3.907 14.301 5.886 5.767 15.463 5.767 21.352 0 .294-.3.773-.3 1.069 0a.747.747 0 0 1-.005 1.061c-3.236 3.168-7.488 4.75-11.74 4.75ZM208.167 22.722c-.065 0-.132-.016-.197-.03a.745.745 0 0 1-.533-.913c1.386-5.095-.112-10.578-3.908-14.298-5.889-5.783-15.466-5.783-21.352 0a.763.763 0 0 1-1.068-.017.726.726 0 0 1 .004-1.046c6.473-6.35 17.008-6.35 23.48 0 4.181 4.095 5.829 10.131 4.302 15.735a.756.756 0 0 1-.728.57Z" fill="#4B4E53"/><path fill-rule="evenodd" clip-rule="evenodd" d="M187.761 9.376a.858.858 0 0 1-.202-.03l-6.116-1.688a.739.739 0 0 1-.547-.626l-.771-6.188a.761.761 0 0 1 .657-.837.757.757 0 0 1 .842.657l.709 5.695 5.629 1.538c.402.12.638.524.526.926a.76.76 0 0 1-.727.553Z" fill="#4B4E53"/><path d="m125.506 97.98 2.044 3.471 4.744-7.51M125.658 83.434l2.043 3.471 4.744-7.509" stroke="#4B4E53" stroke-linecap="round" stroke-linejoin="round"/><rect width="46.604" height="30.045" rx="1" transform="rotate(30.011 -95.828 225.537) skewX(-.138)" fill="#fff"/><rect width="46.942" height="30.534" rx="1" transform="rotate(30.011 -100.706 229.468) skewX(-.137)" fill="#FCD7BE"/><rect x=".182" y=".682" width="45.942" height="29.534" rx=".5" transform="rotate(30.011 -94.764 226.24) skewX(-.138)" stroke="#4B4E53" stroke-linecap="round" stroke-linejoin="round"/><path d="m118.041 104.806 7.3 21.693M108.329 99.203 85.83 103.49M100.446 78.861l10.542 26.499 28.658-3.858" stroke="#4B4E53" stroke-linecap="round" stroke-linejoin="round"/><path stroke="#4B4E53" stroke-linecap="round" d="M193.043 12.494v6.147M199.199 18.8h-6.147M139.126 83.652l36.189.375"/><path d="m125.806 69.039 2.043 3.47 4.745-7.508" stroke="#4B4E53" stroke-linecap="round" stroke-linejoin="round"/><path stroke="#4B4E53" stroke-linecap="round" d="m139.276 69.256 36.188.376M138.967 98.964l36.189.376"/></g><defs><clipPath id="a"><path fill="#fff" d="M0 0h296v130H0z"/></clipPath><filter id="b" x="114.162" y="15.935" width="83.198" height="96.915" filterUnits="userSpaceOnUse" color-interpolation-filters="sRGB"><feFlood flood-opacity="0" result="BackgroundImageFix"/><feColorMatrix in="SourceAlpha" values="0 0 0 0 0 0 0 0 0 0 0 0 0 0 0 0 0 0 127 0"/><feOffset dy="1"/><feGaussianBlur stdDeviation="1.5"/><feColorMatrix values="0 0 0 0 0 0 0 0 0 0 0 0 0 0 0 0 0 0 0.3 0"/><feBlend in2="BackgroundImageFix" result="effect1_dropShadow"/><feBlend in="SourceGraphic" in2="effect1_dropShadow" result="shape"/></filter></defs></svg>