<svg width="145" height="87" fill="none" xmlns="http://www.w3.org/2000/svg"><path d="M24.78 21.919c4.151 0 7.516-3.391 7.516-7.574 0-4.182-3.365-7.571-7.515-7.571-1.162 0-2.25.289-3.23.762-1.643-2.93-4.759-4.911-8.335-4.911-5.287 0-9.573 4.318-9.573 9.647 0 5.328 4.286 9.647 9.573 9.647h11.565Z" fill="#DCF6F9"/><path d="M21.817 4.149c4.527 0 8.194 3.694 8.194 8.25 0 4.557-3.668 8.253-8.194 8.253H10.252C4.588 20.652 0 16.028 0 10.326 0 4.624 4.588 0 10.252 0c3.528 0 6.74 1.815 8.609 4.728a7.95 7.95 0 0 1 2.956-.579Zm0 15.145c3.774 0 6.836-3.086 6.836-6.895 0-3.808-3.062-6.892-6.836-6.892-1.007 0-1.994.24-2.935.694l-.575.278-.313-.557c-1.57-2.798-4.503-4.564-7.742-4.564-4.911 0-8.894 4.013-8.894 8.968 0 4.954 3.983 8.968 8.894 8.968h11.565ZM46.243 62.703V87h1.568V62.703h-1.568Z" fill="#4B4E53"/><path d="M49.115 63.919c10.995 0 19.909-8.982 19.909-20.062 0-11.08-8.913-20.062-19.909-20.062-10.995 0-19.909 8.982-19.909 20.062 0 11.08 8.914 20.062 19.91 20.062Z" fill="#DFF6E3"/><path d="M46.922 62.234c-11.29 0-20.44-9.22-20.44-20.592 0-11.37 9.15-20.591 20.44-20.591 11.29 0 20.44 9.22 20.44 20.591 0 11.372-9.15 20.592-20.44 20.592Zm0-1.358c10.538 0 19.082-8.61 19.082-19.233 0-10.624-8.544-19.234-19.082-19.234-10.537 0-19.081 8.61-19.081 19.233 0 10.624 8.544 19.234 19.081 19.234ZM126.189 41.697h8.742V14.345h-8.742v27.352Zm10.1-28.71v30.068h-11.458V12.987h11.458Z" fill="#4B4E53"/><path fill-rule="evenodd" clip-rule="evenodd" d="M140.993 86.902h1.352v-42.09L108.181 10.19 74.016 44.818v42.084h66.977Z" fill="#fff"/><path d="M77.579 86.826V45.7l33.489-33.943 33.488 33.937v41.132h-23.829V71.665c0-5.4-4.325-9.778-9.659-9.778-5.335 0-9.66 4.377-9.66 9.778v15.16h-23.83Z" fill="#E6E5FF"/><path d="M118.516 86.902v-15.84c0-5.774-4.626-10.457-10.335-10.457-5.71 0-10.336 4.683-10.336 10.457v15.84h1.352v-15.84c0-5.027 4.023-9.099 8.984-9.099 4.96 0 8.983 4.072 8.983 9.099v15.84h1.352ZM75.368 45.377l32.813-33.258 32.812 33.252V86.9h1.352v-42.09L108.181 10.19 74.016 44.818v42.084h1.352V45.377Z" fill="#4B4E53"/></svg>