<svg width="215" height="88" fill="none" xmlns="http://www.w3.org/2000/svg"><path d="M116.146 41.822h8.604V14.717h-8.604v27.105Zm9.957-28.467v29.828h-11.311V13.355h11.311Z" fill="#4B4E53"/><path fill-rule="evenodd" clip-rule="evenodd" d="M133.75 87.889h1.354V45.7l-34.203-34.703-34.204 34.71v42.18h67.053Z" fill="#fff"/><path d="M70.264 87.813V46.592l33.527-34.023 33.527 34.016v41.228h-23.857V72.617c0-5.414-4.329-9.801-9.67-9.801s-9.67 4.387-9.67 9.8v15.197H70.263Z" fill="#E6E5FF"/><path d="M111.248 87.889V72.012c0-5.787-4.631-10.481-10.347-10.481-5.716 0-10.348 4.693-10.348 10.481V87.89h1.354V72.012c0-5.038 4.027-9.12 8.994-9.12 4.966 0 8.993 4.082 8.993 9.12V87.89h1.354ZM68.051 46.267l32.85-33.335 32.849 33.33v41.627h1.354V45.7l-34.203-34.703-34.204 34.71v42.18h1.354v-41.62ZM193.828 41.822h8.604V14.717h-8.604v27.105Zm9.958-28.467v29.828h-11.311V13.355h11.311Z" fill="#4B4E53"/><path fill-rule="evenodd" clip-rule="evenodd" d="M211.433 87.889h1.354V45.7l-34.203-34.703-34.204 34.71v42.18h67.053Z" fill="#fff"/><path d="M147.947 87.813V46.592l33.527-34.023L215 46.585v41.228h-23.856V72.617c0-5.414-4.33-9.801-9.67-9.801-5.342 0-9.671 4.387-9.671 9.8v15.197h-23.856Z" fill="#E6E5FF"/><path d="M188.93 87.889V72.012c0-5.787-4.631-10.481-10.346-10.481-5.717 0-10.348 4.693-10.348 10.481V87.89h1.353V72.012c0-5.038 4.028-9.12 8.995-9.12 4.965 0 8.993 4.082 8.993 9.12V87.89h1.353Zm-43.197-41.622 32.851-33.335 32.849 33.33v41.627h1.354V45.7l-34.203-34.703-34.204 34.71v42.18h1.353v-41.62ZM46.411 49.445V87.94h1.57V49.445h-1.57Z" fill="#4B4E53"/><path d="M50.22 51.52c9.2 0 16.658-7.525 16.658-16.807 0-9.282-7.458-16.807-16.659-16.807-9.2 0-16.658 7.525-16.658 16.807 0 9.282 7.458 16.806 16.658 16.806Z" fill="#DFF6E3"/><path d="M47.816 49.65c-9.508 0-17.214-7.774-17.214-17.361 0-9.588 7.706-17.362 17.214-17.362 9.509 0 17.215 7.774 17.215 17.362 0 9.587-7.706 17.362-17.215 17.362Zm0-1.36c8.755 0 15.855-7.163 15.855-16.001 0-8.838-7.1-16.001-15.855-16.001s-15.854 7.163-15.854 16c0 8.839 7.1 16.002 15.854 16.002Z" fill="#4B4E53"/><path d="M24.129 21.97c4.155 0 7.524-3.4 7.524-7.591 0-4.193-3.369-7.59-7.524-7.59-1.164 0-2.252.29-3.234.764-1.645-2.936-4.763-4.922-8.344-4.922-5.293 0-9.584 4.328-9.584 9.67 0 5.34 4.29 9.668 9.584 9.668H24.13Z" fill="#DCF6F9"/><path d="M21.841 4.159c4.532 0 8.204 3.703 8.204 8.27 0 4.566-3.672 8.27-8.204 8.27H10.264C4.594 20.7 0 16.066 0 10.35 0 4.635 4.593 0 10.264 0c3.531 0 6.747 1.819 8.618 4.739a7.95 7.95 0 0 1 2.96-.58Zm0 15.18c3.779 0 6.844-3.093 6.844-6.91 0-3.818-3.065-6.91-6.844-6.91-1.008 0-1.995.241-2.938.697l-.575.278-.313-.558C16.443 3.13 13.507 1.36 10.264 1.36c-4.917 0-8.904 4.023-8.904 8.989 0 4.966 3.987 8.989 8.904 8.989H21.84Z" fill="#4B4E53"/></svg>