<svg width="80" height="88" fill="none" xmlns="http://www.w3.org/2000/svg"><path d="M56.525 11.268a11.396 11.396 0 0 0-8.479 3.773 11.353 11.353 0 0 0-8.464-3.773c-6.325 0-11.482 5.186-11.497 11.56-.003 1.212.186 2.42.548 3.55 1.222 4.29 4.671 9.157 10.253 14.463 3.784 3.596 7.308 6.194 8.104 6.768.023.023.047.043.071.064a1.39 1.39 0 0 0 .915.327c.347 0 .686-.13.948-.367 1.614-1.159 15.649-11.46 18.467-21.207.384-1.17.58-2.38.583-3.597.014-6.375-5.121-11.56-11.449-11.56Z" fill="#FBC5E9"/><path d="M53.498 9a11.395 11.395 0 0 0-8.479 3.773A11.353 11.353 0 0 0 36.555 9c-6.325 0-11.483 5.186-11.497 11.56a11.59 11.59 0 0 0 .547 3.55c1.222 4.29 4.672 9.157 10.254 14.462 3.783 3.597 7.307 6.195 8.103 6.77.023.022.047.042.071.063a1.39 1.39 0 0 0 .915.327c.347 0 .686-.13.948-.367 1.614-1.16 15.649-11.46 18.468-21.208.383-1.17.58-2.38.582-3.596C64.961 14.186 59.826 9 53.498 9Z" stroke="#4B4E53"/><path d="m25.866 59.42 17.276 7.53c2.435 1.067 5.24-.148 6.273-2.712 1.071-2.646-.127-5.696-2.639-6.762L22.984 47.394c-2.09-.878-4.475-.257-5.929 1.552l-7.79 9.61c-2.423 2.996-1.211 7.625 2.32 8.867L43.59 78.72c1.67.594 3.506.23 4.857-.959L71.052 57.99c2.436-2.133 2.614-6.02.383-8.382-1.964-2.079-5.126-2.227-7.242-.324l-14.37 13.079" stroke="#4B4E53" stroke-miterlimit="10"/></svg>