<svg width="80" height="88" fill="none" xmlns="http://www.w3.org/2000/svg"><g clip-path="url(#a)"><path fill="#fff" d="M0 0h80v88H0z"/><path d="M15.812 25.48c4.927.718 9.509-2.665 10.233-7.557.724-4.892-2.684-9.441-7.612-10.16-4.928-.718-9.51 2.665-10.233 7.557-.724 4.892 2.684 9.44 7.612 10.16Z" fill="#fff"/><path fill-rule="evenodd" clip-rule="evenodd" d="M6.513 14.401c-.815 5.21 2.696 10.01 7.84 10.721 5.146.711 9.977-2.937 10.792-8.148.815-5.21-2.695-10.01-7.84-10.721C12.16 5.543 7.328 9.19 6.513 14.4Zm17.657 2.431c-.732 4.668-5.061 7.938-9.67 7.303-4.61-.634-7.753-4.933-7.022-9.601.732-4.668 5.062-7.938 9.672-7.303 4.609.635 7.752 4.934 7.02 9.601Z" fill="#4B4E53"/><path d="M14.704 24.813c4.927.72 9.507-2.661 10.229-7.554.722-4.892-2.687-9.443-7.615-10.163-4.927-.72-9.507 2.661-10.229 7.554-.722 4.892 2.687 9.442 7.615 10.163Z" fill="#fff" style="mix-blend-mode:multiply"/><path d="M15.348 14.766c.121.118.268.209.44.272.173.063.412.134.717.215.38.098.689.194.926.288.237.095.442.241.616.44.173.2.267.47.283.811a1.35 1.35 0 0 1-.41 1.07c-.294.29-.698.475-1.212.557l.048 1.045-.578.027-.048-1.038a3.131 3.131 0 0 1-1.07-.219 3.255 3.255 0 0 1-.926-.548l.31-.669c.276.245.582.43.919.553.336.124.66.179.972.164.37-.017.657-.102.865-.256a.673.673 0 0 0 .293-.6.68.68 0 0 0-.196-.472 1.229 1.229 0 0 0-.454-.278 7.52 7.52 0 0 0-.728-.211 7.376 7.376 0 0 1-.917-.281 1.56 1.56 0 0 1-.612-.437c-.17-.197-.263-.463-.279-.799a1.264 1.264 0 0 1 .397-1.014c.284-.273.672-.447 1.166-.522l-.044-.952.578-.026.044.943c.291.008.576.053.855.134.279.082.53.189.753.32l-.285.69c-.267-.15-.54-.26-.821-.328a2.737 2.737 0 0 0-.77-.087c-.322.015-.576.088-.763.22a.573.573 0 0 0-.266.52c.01.195.075.35.197.468Z" fill="#4B4E53"/><path fill-rule="evenodd" clip-rule="evenodd" d="M69.885 26.08a2 2 0 0 0-.732-2.732l-10.327-5.963a2 2 0 0 0-2.732.732l-1.992 3.45c-9.917-1.378-20.753 4.097-26.724 14.438-7.573 13.118-4.451 29.1 6.974 35.695 11.425 6.597 26.826 1.31 34.4-11.808 3.392-5.875 4.638-12.325 3.954-18.248-.52-4.503-2.156-8.703-4.813-12.114l1.992-3.45Z" fill="#FFF8C5"/><mask id="b" fill="#fff"><path fill-rule="evenodd" clip-rule="evenodd" d="M68.116 24.31a2 2 0 0 0-.732-2.732l-10.327-5.962a2 2 0 0 0-2.733.732l-1.992 3.45c-9.917-1.378-20.753 4.096-26.724 14.438-7.573 13.117-4.45 29.099 6.974 35.695 11.425 6.596 26.827 1.31 34.4-11.808 3.392-5.875 4.639-12.325 3.954-18.249-.52-4.503-2.155-8.702-4.812-12.113l1.992-3.45Z"/></mask><path d="m67.384 21.578.5-.866-.5.866Zm-10.327-5.962-.5.866.5-.866Zm-4.725 4.182-.137.99.667.093.337-.583-.867-.5ZM25.608 34.236l.866.5-.866-.5Zm6.974 35.695-.5.866.5-.866Zm34.4-11.808.866.5-.866-.5Zm3.954-18.249.994-.114-.994.114Zm-4.812-12.113-.866-.5-.337.583.414.531.789-.614Zm.76-5.317a1 1 0 0 1 .366 1.366l1.732 1a3 3 0 0 0-1.098-4.098l-1 1.732Zm-10.327-5.962 10.327 5.962 1-1.732-10.327-5.962-1 1.732Zm-1.367.366a1 1 0 0 1 1.367-.366l1-1.732a3 3 0 0 0-4.099 1.098l1.733 1Zm-1.991 3.45 1.992-3.45-1.733-1-1.992 3.45 1.733 1ZM26.475 34.736c5.794-10.036 16.257-15.262 25.72-13.947l.275-1.981c-10.371-1.442-21.58 4.28-27.728 14.928l1.732 1Zm6.607 34.329c-10.838-6.258-13.972-21.574-6.608-34.33l-1.732-1c-7.782 13.48-4.672 30.127 7.34 37.062l1-1.732Zm33.034-11.442c-7.364 12.756-22.195 17.7-33.034 11.442l-1 1.732c12.012 6.935 27.984 1.306 35.766-12.174l-1.732-1Zm3.827-17.634c.66 5.706-.54 11.94-3.827 17.634l1.732 1c3.497-6.057 4.791-12.722 4.082-18.863l-1.987.23Zm-4.608-11.614c2.534 3.254 4.107 7.276 4.608 11.614l1.987-.23c-.54-4.668-2.238-9.044-5.017-12.613l-1.578 1.23Zm1.915-4.565-1.992 3.45 1.732 1 1.992-3.45-1.732-1Z" fill="#4B4E53" mask="url(#b)"/><path d="M73.224 41.627c-3.51-3.004-10.89-2.232-14.282-1.427l2.132 14.001c9.408.565 12.825-6.967 12.668-11.478a1.504 1.504 0 0 0-.518-1.096Z" fill="#FFF8C5"/><path d="M58.942 40.2c3.392-.805 10.771-1.577 14.282 1.427.32.275.503.673.518 1.096.157 4.51-3.26 12.043-12.668 11.478" stroke="#4B4E53" stroke-linecap="round" stroke-linejoin="round"/><path d="M36.773 20.582c4.357 1.539 7.379 8.315 8.377 11.655l-13.191 5.154c-5.194-7.865-.379-14.59 3.606-16.71.373-.198.81-.24 1.208-.099Z" fill="#FFF8C5"/><path d="M45.15 32.237c-.998-3.34-4.02-10.116-8.377-11.655-.398-.14-.835-.1-1.208.1-3.985 2.12-8.8 8.844-3.606 16.71" stroke="#4B4E53" stroke-linecap="round" stroke-linejoin="round"/><circle cx="51.549" cy="24.694" r="1.769" transform="rotate(30 51.549 24.694)" fill="#4B4E53"/><circle cx="62.275" cy="30.888" r="1.769" transform="rotate(30 62.275 30.888)" fill="#4B4E53"/><path d="M47.622 43.88 41.43 54.608" stroke="#4B4E53" stroke-linecap="round" stroke-linejoin="round"/><path d="M28.056 78.234a.5.5 0 1 0 .443.897l-.443-.897Zm5.578-8.076-.097-.49-.981.193.097.49.98-.193Zm-4.1 1.609-.246.435.247-.435ZM28.5 79.13c.42-.208.897-.69 1.317-1.251a8.42 8.42 0 0 0 1.14-2.08c.282-.767.442-1.615.303-2.413-.143-.822-.6-1.557-1.478-2.055l-.493.87c.608.345.892.82.986 1.357.098.56-.009 1.22-.257 1.895a7.419 7.419 0 0 1-1.002 1.827c-.396.53-.758.854-.96.953l.444.897Zm-1.473-5.933c.302.721.966 1.24 1.7 1.538.742.3 1.62.403 2.438.233.826-.171 1.611-.626 2.103-1.451.49-.821.647-1.939.367-3.36l-.981.194c.248 1.26.081 2.107-.245 2.654-.323.542-.843.859-1.447.984-.61.127-1.287.051-1.859-.18-.579-.235-.987-.6-1.153-.997l-.923.385Zm2.755-1.866c-.669-.38-1.479-.314-2.054.01a1.623 1.623 0 0 0-.703.741c-.152.34-.159.73.002 1.115l.923-.385c-.06-.143-.047-.245-.011-.324.04-.09.129-.192.278-.276.308-.173.743-.198 1.072-.011l.493-.87Z" fill="#4B4E53"/></g><defs><clipPath id="a"><path fill="#fff" d="M0 0h80v88H0z"/></clipPath></defs></svg>