<svg width="201" height="122" fill="none" xmlns="http://www.w3.org/2000/svg"><g filter="url(#a)"><path fill="#fff" d="m99.104 24.955 74.331-20 23.645 88.312-74.33 20z"/></g><path d="m126.952 75.989 47.51-12.734c.358-.096.59-.39.519-.657-.071-.267-.419-.405-.777-.31l-47.51 12.734c-.358.096-.59.39-.519.657.071.267.419.406.777.31ZM133.894 88.626l40.873-10.955c.308-.083.5-.366.429-.633-.071-.266-.379-.416-.687-.333L133.636 87.66c-.308.083-.5.366-.429.633.071.266.379.416.687.333ZM141.024 92.929l29.72-7.966c.224-.06.348-.325.276-.592-.071-.267-.31-.434-.534-.374l-29.721 7.966c-.224.06-.347.325-.276.591.071.267.311.435.535.375Z" fill="#4B4E53"/><path fill-rule="evenodd" clip-rule="evenodd" d="M147.191 57.572c6.729-1.719 10.566-8.849 8.57-15.927-1.996-7.077-9.07-11.422-15.799-9.703-6.73 1.718-10.567 8.848-8.571 15.926 1.997 7.077 9.07 11.422 15.8 9.704Z" fill="#fff" stroke="#4B4E53"/><path d="M142.222 48.496c.156.555-.148 1.115-.679 1.25-.529.136-1.089-.204-1.245-.759-.156-.554.149-1.115.678-1.25.531-.136 1.089.204 1.246.76ZM148.314 46.85c.156.555-.148 1.115-.679 1.251-.529.135-1.088-.204-1.245-.76-.156-.554.149-1.115.679-1.25.531-.135 1.088.205 1.245.76Z" fill="#4B4E53"/><path d="M143.475 52.198c.305 1.083 1.384 1.748 2.412 1.485v0c1.027-.264 1.613-1.355 1.308-2.438" stroke="#4B4E53" stroke-linecap="round" stroke-linejoin="round"/><path fill-rule="evenodd" clip-rule="evenodd" d="M135.407 40.451c4.427 3.036 15.806 5.535 22.778 4.582-.798-2.473-1.396-5.526-2.562-7.439-4.557-7.476-14.605-8.718-21.032-3.161-7.71 2.912-4.776 13.638-2.888 16.008.102-.831.524-1.547.815-3.245 1.686-1.361 2.699-4.127 2.889-6.745Z" fill="#fff" stroke="#4B4E53" stroke-linecap="round"/><g filter="url(#b)"><path fill="#fff" d="m3.104 24.955 74.331-20 23.645 88.312-74.33 20z"/></g><path d="m30.952 75.988 47.51-12.734c.358-.096.59-.39.52-.657-.072-.266-.42-.405-.778-.309l-47.51 12.734c-.358.096-.59.39-.52.657.072.267.42.405.778.31ZM37.894 88.626l40.873-10.955c.309-.083.5-.366.43-.633-.072-.266-.38-.416-.688-.333L37.636 87.66c-.308.083-.5.366-.429.633.071.266.379.416.687.333ZM45.024 92.929l29.72-7.966c.224-.06.348-.325.276-.592-.07-.267-.31-.434-.534-.374l-29.72 7.966c-.224.06-.348.325-.277.591.071.267.31.435.535.375Z" fill="#4B4E53"/><mask id="c" mask-type="alpha" maskUnits="userSpaceOnUse" x="22" y="15" width="50" height="51"><path fill-rule="evenodd" clip-rule="evenodd" d="M53.936 64.683c12.883-3.35 20.322-16.904 16.613-30.273-3.708-13.37-17.158-21.492-30.042-18.142-12.883 3.35-20.321 16.904-16.613 30.274 3.708 13.37 17.158 21.492 30.042 18.141Z" fill="#fff"/></mask><g mask="url(#c)"><path d="M41.25 54.065c2.894 2.075 6.53 2.916 10.069 1.998 3.616-.937 6.369-3.515 7.771-6.812" stroke="#4B4E53"/><path d="M48.002 51.074c.29 1.032 1.318 1.664 2.296 1.414v0c.979-.251 1.537-1.29 1.247-2.321" stroke="#4B4E53" stroke-linecap="round" stroke-linejoin="round"/><path d="M46.175 47.418c.153.543-.144 1.09-.664 1.223-.518.133-1.066-.2-1.219-.743-.153-.542.146-1.091.664-1.223.52-.133 1.066.2 1.219.743ZM52.564 45.692c.153.543-.144 1.091-.664 1.224-.518.132-1.066-.2-1.219-.743-.153-.543.147-1.092.664-1.224.52-.133 1.066.2 1.22.743Z" fill="#4B4E53"/><path clip-rule="evenodd" d="M44.258 29.137s.283-1.186 1.551-1.51a1.797 1.797 0 0 1 1.922.623s1.023-.604 1.779-.454c.756.15 1.476 1.109 1.476 1.109s1.412-.99 2.668-.527c1.256.464 1.72 2.113 1.72 2.113s1.433-.72 2.496.061c1.064.782 1.018 2.522 1.018 2.522s1.549-.004 2.23 1.124c.683 1.129.24 2.924.24 2.924s.851.099 1.582 1.293c.73 1.194.376 2.973.376 2.973s1.54.346 2.051 1.425c.512 1.08.222 2.125.222 2.125s1.656.172 2.244 2.094c.588 1.922-.627 3.037-.627 3.037s.673 2.386-.726 3.354c-1.4.97-2.704.08-2.704.08s-.603 1.098-1.402 1.302c-.799.204-1.836-.475-1.836-.475s-.779.486-1.296.558c-.517.071-1.223-.21-1.223-.21s-.653.873-1.945 1.203c-1.292.33-2.6-.043-2.6-.043s-.695 1.084-1.844 1.378c-1.15.293-2.011-.393-2.011-.393s-.64 1.07-1.63 1.322c-.992.254-2.236-.335-2.236-.335s-.377.93-1.03 1.17c-.652.239-1.608-.201-1.608-.201s-.48 1.066-1.48 1.322c-1 .255-2.08-.413-2.08-.413s-1.177 1.82-2.854 1.34c-1.676-.48-1.643-2.75-1.643-2.75s-1.691-.194-2.303-2.288c-.612-2.095.844-2.883.844-2.883s-1.046-1.046-.923-2.393c.123-1.347 1.26-1.824 1.26-1.824s-1.268-.958-1.341-2.423c-.073-1.465.732-2.367.732-2.367s-1.31-1.055-1.391-2.567c-.082-1.513 1.451-2.065 1.451-2.065s-.722-1.325-.267-2.596c.454-1.27 2.013-1.486 2.013-1.486s-.532-1.568.45-2.548 2.322-.438 2.322-.438-.165-1.439.706-2.082c.872-.643 2.087-.078 2.087-.078s.269-1.128 1.538-1.478c1.27-.35 2.022.375 2.022.375Z" stroke="#4B4E53" stroke-linecap="square"/><path d="M41.601 54.362c.088-.336.07-.725-.055-1.168-.272-.964-1.41-1.557-1.41-1.557s.695-.978.341-2.232c-.354-1.254-1.677-1.827-1.677-1.827s1.547-1.375 1.553-2.64c.006-1.267-.634-2.306-.984-2.668 3.545-.305 8.85-2.133 10.095-6.588 1.4 1.794 4.415 3.479 7.043 2.811-.175.703-.543 1.65-.027 2.767.517 1.118 1.737 1.634 1.737 1.634s-.77 1.133-.495 2.107c.275.973 1.58 1.741 1.58 1.741s-.764 1.15-.511 2.048c.095.337.264.646.507.927" stroke="#4B4E53" stroke-linecap="round"/></g><g filter="url(#d)"><path fill="#fff" d="m51.469 24.987 74.331-20L149.445 93.3l-74.331 20z"/></g><path d="m86.259 88.659 40.873-10.955c.308-.083.5-.366.429-.633-.071-.267-.379-.416-.687-.334L86.001 87.694c-.308.082-.5.366-.43.632.072.267.38.416.688.334ZM93.388 92.961l29.721-7.965c.224-.06.347-.325.276-.592-.071-.267-.31-.435-.535-.375l-29.72 7.966c-.224.06-.348.325-.276.592.07.267.31.434.534.374Z" fill="#4B4E53"/><path fill-rule="evenodd" clip-rule="evenodd" d="M98.04 85c22.643 0 40.999-18.356 40.999-41s-18.356-41-41-41c-22.643 0-41 18.356-41 41 0 12.711 5.785 24.072 14.865 31.592l-23.476 39.249a3.015 3.015 0 0 0 1.024 4.126l3.75 2.263a2.985 2.985 0 0 0 4.107-1.028l23.36-39.053A40.844 40.844 0 0 0 98.038 85Z" fill="#CDCCFB"/><circle cx="98" cy="43" r="31" fill="#fff"/><path d="M79.054 77.44 55.27 117.201a2.984 2.984 0 0 1-4.107 1.028l-3.75-2.263a3.014 3.014 0 0 1-1.024-4.125l23.783-39.763" stroke="#4B4E53"/><circle cx="96" cy="41" r="30.5" stroke="#4B4E53"/><circle cx="96" cy="41" r="40.5" stroke="#4B4E53"/><mask id="e" mask-type="alpha" maskUnits="userSpaceOnUse" x="73" y="18" width="46" height="46"><path fill-rule="evenodd" clip-rule="evenodd" d="M101.38 62.542c11.989-3.226 19.085-15.617 15.848-27.676-3.236-12.06-15.578-19.22-27.567-15.994-11.989 3.226-19.085 15.617-15.849 27.676 3.237 12.059 15.579 19.22 27.568 15.994Z" fill="#fff"/></mask><g mask="url(#e)"><path d="M99.128 33.137a.503.503 0 0 0 .474-.553 6.976 6.976 0 0 0-.237-1.338c-1.003-3.576-4.635-5.745-8.112-4.845-3.478.9-5.486 4.528-4.483 8.105a6.95 6.95 0 0 0 .592 1.46c.142.259.458.36.706.223.249-.135 10.775-3.04 11.06-3.052Z" fill="#fff"/><path d="M87.989 35.792a6.21 6.21 0 0 1-.53-1.305c-.898-3.204.903-6.458 4.024-7.265 3.121-.808 6.378 1.136 7.276 4.34.111.396.181.795.213 1.2.025.313.291.554.595.54a.537.537 0 0 0 .506-.589 7.438 7.438 0 0 0-.253-1.425c-1.069-3.811-4.939-6.122-8.644-5.163-3.705.96-5.845 4.825-4.777 8.636a7.4 7.4 0 0 0 .631 1.555.559.559 0 0 0 .753.24.559.559 0 0 0 .206-.764Z" fill="#4B4E53"/><path d="M108.711 41.762c1.98 7.061-1.987 14.224-8.86 16.001-6.874 1.777-14.052-2.504-16.033-9.565-1.98-7.06 1.99-14.224 8.863-16 6.873-1.778 14.05 2.503 16.03 9.564Z" fill="#fff"/><path fill-rule="evenodd" clip-rule="evenodd" d="M100 57.6c6.88-1.745 10.824-8.87 8.806-15.918-2.018-7.048-9.231-11.346-16.112-9.602-6.88 1.744-10.825 8.87-8.808 15.918 2.018 7.048 9.233 11.345 16.114 9.601ZM93 33.18c6.299-1.596 12.899 2.336 14.744 8.782 1.845 6.445-1.763 12.964-8.061 14.56-6.3 1.597-12.901-2.335-14.746-8.78C83.092 41.298 86.7 34.778 93 33.18Z" fill="#4B4E53"/><path d="M84.306 40.688c.143.22.425.556.868.953.719.644 1.638 1.23 2.773 1.7.953.393 2.02.688 3.207.864 1.325.198 2.889.087 6.136-.33l1.499-.194c.58-.073 1.063-.132 1.526-.185 5.911-.672 9.201-.244 10.639 1.944.674 1.025.393 2.53-.415 2.939a.557.557 0 0 0-.228.756.56.56 0 0 0 .746.262c1.416-.716 1.841-2.99.806-4.565-1.785-2.716-5.368-3.182-11.71-2.46-.468.053-.955.112-1.54.187-.328.041-1.43.184-1.5.193-3.137.403-4.654.51-5.84.334a12.513 12.513 0 0 1-2.945-.792c-1.014-.42-1.822-.935-2.445-1.493a5.316 5.316 0 0 1-.525-.536 2.256 2.256 0 0 1-.139-.179.554.554 0 0 0-.767-.178.564.564 0 0 0-.146.78ZM94.642 48.312c.15.536-.151 1.08-.674 1.216-.521.134-1.07-.19-1.22-.727-.15-.535.154-1.08.675-1.215.523-.135 1.07.19 1.22.726Z" fill="#4B4E53"/><path d="M101.021 46.596c.15.535-.152 1.08-.675 1.215-.52.135-1.069-.19-1.219-.726-.15-.536.154-1.08.675-1.216.523-.135 1.069.19 1.219.727ZM99.83 50.622c.291 1.038-.293 2.093-1.306 2.355-1.013.263-2.067-.368-2.358-1.406a.573.573 0 0 0-.684-.411.546.546 0 0 0-.377.686c.461 1.645 2.129 2.642 3.726 2.229 1.598-.414 2.521-2.082 2.06-3.728a.573.573 0 0 0-.684-.41.546.546 0 0 0-.377.685Z" fill="#4B4E53"/></g><defs><filter id="a" x="96.104" y="2.954" width="103.977" height="114.313" filterUnits="userSpaceOnUse" color-interpolation-filters="sRGB"><feFlood flood-opacity="0" result="BackgroundImageFix"/><feColorMatrix in="SourceAlpha" values="0 0 0 0 0 0 0 0 0 0 0 0 0 0 0 0 0 0 127 0"/><feOffset dy="1"/><feGaussianBlur stdDeviation="1.5"/><feColorMatrix values="0 0 0 0 0 0 0 0 0 0 0 0 0 0 0 0 0 0 0.3 0"/><feBlend in2="BackgroundImageFix" result="effect1_dropShadow"/><feBlend in="SourceGraphic" in2="effect1_dropShadow" result="shape"/></filter><filter id="b" x=".104" y="2.954" width="103.977" height="114.313" filterUnits="userSpaceOnUse" color-interpolation-filters="sRGB"><feFlood flood-opacity="0" result="BackgroundImageFix"/><feColorMatrix in="SourceAlpha" values="0 0 0 0 0 0 0 0 0 0 0 0 0 0 0 0 0 0 127 0"/><feOffset dy="1"/><feGaussianBlur stdDeviation="1.5"/><feColorMatrix values="0 0 0 0 0 0 0 0 0 0 0 0 0 0 0 0 0 0 0.3 0"/><feBlend in2="BackgroundImageFix" result="effect1_dropShadow"/><feBlend in="SourceGraphic" in2="effect1_dropShadow" result="shape"/></filter><filter id="d" x="48.469" y="2.987" width="103.977" height="114.313" filterUnits="userSpaceOnUse" color-interpolation-filters="sRGB"><feFlood flood-opacity="0" result="BackgroundImageFix"/><feColorMatrix in="SourceAlpha" values="0 0 0 0 0 0 0 0 0 0 0 0 0 0 0 0 0 0 127 0"/><feOffset dy="1"/><feGaussianBlur stdDeviation="1.5"/><feColorMatrix values="0 0 0 0 0 0 0 0 0 0 0 0 0 0 0 0 0 0 0.3 0"/><feBlend in2="BackgroundImageFix" result="effect1_dropShadow"/><feBlend in="SourceGraphic" in2="effect1_dropShadow" result="shape"/></filter></defs></svg>